<svg viewBox="0 0 1248 1588" width="1248" height="1588" xmlns="http://www.w3.org/2000/svg" font-family="'Inter','Helvetica Neue',Arial,sans-serif">
<rect width="1248" height="1588" fill="#EDEDEF"/>
<text x="24" y="44" font-family="'Inter','Helvetica Neue',Arial,sans-serif" font-size="26" font-weight="700" fill="#2C2E33" text-anchor="start" letter-spacing="0" >rustak — round 2: variants on 04 (party per bend)</text>
<g transform="translate(24,84)">
<rect x="8" y="8" width="284" height="364" rx="14" fill="#FFFFFF"/>
<svg x="22.0" y="24" width="256" height="256" viewBox="0 0 256 256"><defs>
    <linearGradient id="vA1ink" x1="0" y1="0" x2="0" y2="1"><stop offset="0" stop-color="#484B51"/><stop offset="1" stop-color="#2C2E33"/></linearGradient>
    <linearGradient id="vA1paper" x1="0" y1="0" x2="0" y2="1"><stop offset="0" stop-color="#F7F7F7"/><stop offset="1" stop-color="#E2E2E2"/></linearGradient>
    <linearGradient id="vA1rust" x1="0" y1="0" x2="0" y2="1"><stop offset="0" stop-color="#F2643F"/><stop offset="1" stop-color="#E5401C"/></linearGradient>
    <clipPath id="vA1clipA"><path d="M48,40 H208 V130 C208,180 172,214 128,228 C84,214 48,180 48,130 Z"/></clipPath>
    <clipPath id="vA1clipB"><path d="M64,36 H192 Q200,36 200,44 V128 Q200,192 128,226 Q56,192 56,128 V44 Q56,36 64,36 Z"/></clipPath>
    <clipPath id="vA1clipC"><path d="M128,28 L208,62 V142 L128,228 L48,142 V62 Z"/></clipPath>
    <filter id="vA1soft" x="-60%" y="-60%" width="220%" height="220%"><feGaussianBlur stdDeviation="3.6"/></filter>
  </defs><g clip-path="url(#vA1clipB)">
      <rect width="256" height="256" fill="#2C2E33"/>
      <path d="M-296.3,552.3 L552.3,-296.3 L1117.9,269.4 L269.4,1117.9 Z" fill="#E5401C"/>
    </g><g transform="translate(128,132) scale(0.66)"><path d="M0,-22 C36,-52 74,-70 100,-64 L84,-50 L90,-38 L70,-30 L76,-18 L54,-12 L58,0 L36,2 L38,12 L18,12 L18,26 L26,50 L14,46 L8,58 L0,50 L-8,58 L-14,46 L-26,50 L-18,26 L-18,12 L-38,12 L-36,2 L-58,0 L-54,-12 L-76,-18 L-70,-30 L-90,-38 L-84,-50 L-100,-64 C-74,-70 -36,-52 0,-22 Z M0,-58 C11,-58 19,-48 19,-36 C19,-26 15,-18 8,-14 L0,-2 L-8,-14 C-15,-18 -19,-26 -19,-36 C-19,-48 -11,-58 0,-58 Z" fill="#FFFFFF" /></g></svg>
<text x="24" y="314" font-family="'Inter','Helvetica Neue',Arial,sans-serif" font-size="17" font-weight="700" fill="#2C2E33" text-anchor="start" letter-spacing="0" >A1  Baseline (04)</text>
<text x="24" y="336" font-family="'Inter','Helvetica Neue',Arial,sans-serif" font-size="13" font-weight="400" fill="#6B6E75" text-anchor="start" letter-spacing="0" >Ink over rust, bend dexter, white</text>
<text x="24" y="354" font-family="'Inter','Helvetica Neue',Arial,sans-serif" font-size="13" font-weight="400" fill="#6B6E75" text-anchor="start" letter-spacing="0" >eagle</text>
</g>
<g transform="translate(324,84)">
<rect x="8" y="8" width="284" height="364" rx="14" fill="#FFFFFF"/>
<svg x="22.0" y="24" width="256" height="256" viewBox="0 0 256 256"><defs>
    <linearGradient id="vA2ink" x1="0" y1="0" x2="0" y2="1"><stop offset="0" stop-color="#484B51"/><stop offset="1" stop-color="#2C2E33"/></linearGradient>
    <linearGradient id="vA2paper" x1="0" y1="0" x2="0" y2="1"><stop offset="0" stop-color="#F7F7F7"/><stop offset="1" stop-color="#E2E2E2"/></linearGradient>
    <linearGradient id="vA2rust" x1="0" y1="0" x2="0" y2="1"><stop offset="0" stop-color="#F2643F"/><stop offset="1" stop-color="#E5401C"/></linearGradient>
    <clipPath id="vA2clipA"><path d="M48,40 H208 V130 C208,180 172,214 128,228 C84,214 48,180 48,130 Z"/></clipPath>
    <clipPath id="vA2clipB"><path d="M64,36 H192 Q200,36 200,44 V128 Q200,192 128,226 Q56,192 56,128 V44 Q56,36 64,36 Z"/></clipPath>
    <clipPath id="vA2clipC"><path d="M128,28 L208,62 V142 L128,228 L48,142 V62 Z"/></clipPath>
    <filter id="vA2soft" x="-60%" y="-60%" width="220%" height="220%"><feGaussianBlur stdDeviation="3.6"/></filter>
  </defs><g clip-path="url(#vA2clipB)">
      <rect width="256" height="256" fill="#2C2E33"/>
      <path d="M552.3,552.3 L-296.3,-296.3 L-861.9,269.4 L-13.4,1117.9 Z" fill="#E5401C"/>
    </g><g transform="translate(128,132) scale(0.66)"><path d="M0,-22 C36,-52 74,-70 100,-64 L84,-50 L90,-38 L70,-30 L76,-18 L54,-12 L58,0 L36,2 L38,12 L18,12 L18,26 L26,50 L14,46 L8,58 L0,50 L-8,58 L-14,46 L-26,50 L-18,26 L-18,12 L-38,12 L-36,2 L-58,0 L-54,-12 L-76,-18 L-70,-30 L-90,-38 L-84,-50 L-100,-64 C-74,-70 -36,-52 0,-22 Z M0,-58 C11,-58 19,-48 19,-36 C19,-26 15,-18 8,-14 L0,-2 L-8,-14 C-15,-18 -19,-26 -19,-36 C-19,-48 -11,-58 0,-58 Z" fill="#FFFFFF" /></g></svg>
<text x="24" y="314" font-family="'Inter','Helvetica Neue',Arial,sans-serif" font-size="17" font-weight="700" fill="#2C2E33" text-anchor="start" letter-spacing="0" >A2  Bend sinister</text>
<text x="24" y="336" font-family="'Inter','Helvetica Neue',Arial,sans-serif" font-size="13" font-weight="400" fill="#6B6E75" text-anchor="start" letter-spacing="0" >Diagonal mirrored</text>
</g>
<g transform="translate(624,84)">
<rect x="8" y="8" width="284" height="364" rx="14" fill="#FFFFFF"/>
<svg x="22.0" y="24" width="256" height="256" viewBox="0 0 256 256"><defs>
    <linearGradient id="vA3ink" x1="0" y1="0" x2="0" y2="1"><stop offset="0" stop-color="#484B51"/><stop offset="1" stop-color="#2C2E33"/></linearGradient>
    <linearGradient id="vA3paper" x1="0" y1="0" x2="0" y2="1"><stop offset="0" stop-color="#F7F7F7"/><stop offset="1" stop-color="#E2E2E2"/></linearGradient>
    <linearGradient id="vA3rust" x1="0" y1="0" x2="0" y2="1"><stop offset="0" stop-color="#F2643F"/><stop offset="1" stop-color="#E5401C"/></linearGradient>
    <clipPath id="vA3clipA"><path d="M48,40 H208 V130 C208,180 172,214 128,228 C84,214 48,180 48,130 Z"/></clipPath>
    <clipPath id="vA3clipB"><path d="M64,36 H192 Q200,36 200,44 V128 Q200,192 128,226 Q56,192 56,128 V44 Q56,36 64,36 Z"/></clipPath>
    <clipPath id="vA3clipC"><path d="M128,28 L208,62 V142 L128,228 L48,142 V62 Z"/></clipPath>
    <filter id="vA3soft" x="-60%" y="-60%" width="220%" height="220%"><feGaussianBlur stdDeviation="3.6"/></filter>
  </defs><g clip-path="url(#vA3clipB)">
      <rect width="256" height="256" fill="#E5401C"/>
      <path d="M-296.3,552.3 L552.3,-296.3 L1117.9,269.4 L269.4,1117.9 Z" fill="#2C2E33"/>
    </g><g transform="translate(128,132) scale(0.66)"><path d="M0,-22 C36,-52 74,-70 100,-64 L84,-50 L90,-38 L70,-30 L76,-18 L54,-12 L58,0 L36,2 L38,12 L18,12 L18,26 L26,50 L14,46 L8,58 L0,50 L-8,58 L-14,46 L-26,50 L-18,26 L-18,12 L-38,12 L-36,2 L-58,0 L-54,-12 L-76,-18 L-70,-30 L-90,-38 L-84,-50 L-100,-64 C-74,-70 -36,-52 0,-22 Z M0,-58 C11,-58 19,-48 19,-36 C19,-26 15,-18 8,-14 L0,-2 L-8,-14 C-15,-18 -19,-26 -19,-36 C-19,-48 -11,-58 0,-58 Z" fill="#FFFFFF" /></g></svg>
<text x="24" y="314" font-family="'Inter','Helvetica Neue',Arial,sans-serif" font-size="17" font-weight="700" fill="#2C2E33" text-anchor="start" letter-spacing="0" >A3  Colours swapped</text>
<text x="24" y="336" font-family="'Inter','Helvetica Neue',Arial,sans-serif" font-size="13" font-weight="400" fill="#6B6E75" text-anchor="start" letter-spacing="0" >Rust over ink</text>
</g>
<g transform="translate(924,84)">
<rect x="8" y="8" width="284" height="364" rx="14" fill="#FFFFFF"/>
<svg x="22.0" y="24" width="256" height="256" viewBox="0 0 256 256"><defs>
    <linearGradient id="vA4ink" x1="0" y1="0" x2="0" y2="1"><stop offset="0" stop-color="#484B51"/><stop offset="1" stop-color="#2C2E33"/></linearGradient>
    <linearGradient id="vA4paper" x1="0" y1="0" x2="0" y2="1"><stop offset="0" stop-color="#F7F7F7"/><stop offset="1" stop-color="#E2E2E2"/></linearGradient>
    <linearGradient id="vA4rust" x1="0" y1="0" x2="0" y2="1"><stop offset="0" stop-color="#F2643F"/><stop offset="1" stop-color="#E5401C"/></linearGradient>
    <clipPath id="vA4clipA"><path d="M48,40 H208 V130 C208,180 172,214 128,228 C84,214 48,180 48,130 Z"/></clipPath>
    <clipPath id="vA4clipB"><path d="M64,36 H192 Q200,36 200,44 V128 Q200,192 128,226 Q56,192 56,128 V44 Q56,36 64,36 Z"/></clipPath>
    <clipPath id="vA4clipC"><path d="M128,28 L208,62 V142 L128,228 L48,142 V62 Z"/></clipPath>
    <filter id="vA4soft" x="-60%" y="-60%" width="220%" height="220%"><feGaussianBlur stdDeviation="3.6"/></filter>
  </defs><g clip-path="url(#vA4clipB)">
      <rect width="256" height="256" fill="#2C2E33"/>
      <path d="M-153.7,657.8 L409.7,-401.8 L1116.0,-26.2 L552.7,1033.3 Z" fill="#E5401C"/>
    </g><g transform="translate(128,132) scale(0.66)"><path d="M0,-22 C36,-52 74,-70 100,-64 L84,-50 L90,-38 L70,-30 L76,-18 L54,-12 L58,0 L36,2 L38,12 L18,12 L18,26 L26,50 L14,46 L8,58 L0,50 L-8,58 L-14,46 L-26,50 L-18,26 L-18,12 L-38,12 L-36,2 L-58,0 L-54,-12 L-76,-18 L-70,-30 L-90,-38 L-84,-50 L-100,-64 C-74,-70 -36,-52 0,-22 Z M0,-58 C11,-58 19,-48 19,-36 C19,-26 15,-18 8,-14 L0,-2 L-8,-14 C-15,-18 -19,-26 -19,-36 C-19,-48 -11,-58 0,-58 Z" fill="#FFFFFF" /></g></svg>
<text x="24" y="314" font-family="'Inter','Helvetica Neue',Arial,sans-serif" font-size="17" font-weight="700" fill="#2C2E33" text-anchor="start" letter-spacing="0" >A4  Steeper bend</text>
<text x="24" y="336" font-family="'Inter','Helvetica Neue',Arial,sans-serif" font-size="13" font-weight="400" fill="#6B6E75" text-anchor="start" letter-spacing="0" >62° split</text>
</g>
<g transform="translate(24,464)">
<rect x="8" y="8" width="284" height="364" rx="14" fill="#FFFFFF"/>
<svg x="22.0" y="24" width="256" height="256" viewBox="0 0 256 256"><defs>
    <linearGradient id="vA5ink" x1="0" y1="0" x2="0" y2="1"><stop offset="0" stop-color="#484B51"/><stop offset="1" stop-color="#2C2E33"/></linearGradient>
    <linearGradient id="vA5paper" x1="0" y1="0" x2="0" y2="1"><stop offset="0" stop-color="#F7F7F7"/><stop offset="1" stop-color="#E2E2E2"/></linearGradient>
    <linearGradient id="vA5rust" x1="0" y1="0" x2="0" y2="1"><stop offset="0" stop-color="#F2643F"/><stop offset="1" stop-color="#E5401C"/></linearGradient>
    <clipPath id="vA5clipA"><path d="M48,40 H208 V130 C208,180 172,214 128,228 C84,214 48,180 48,130 Z"/></clipPath>
    <clipPath id="vA5clipB"><path d="M64,36 H192 Q200,36 200,44 V128 Q200,192 128,226 Q56,192 56,128 V44 Q56,36 64,36 Z"/></clipPath>
    <clipPath id="vA5clipC"><path d="M128,28 L208,62 V142 L128,228 L48,142 V62 Z"/></clipPath>
    <filter id="vA5soft" x="-60%" y="-60%" width="220%" height="220%"><feGaussianBlur stdDeviation="3.6"/></filter>
  </defs><g clip-path="url(#vA5clipB)">
      <rect width="256" height="256" fill="#2C2E33"/>
      <path d="M-401.8,409.7 L657.8,-153.7 L1033.3,552.7 L-26.2,1116.0 Z" fill="#E5401C"/>
    </g><g transform="translate(128,132) scale(0.66)"><path d="M0,-22 C36,-52 74,-70 100,-64 L84,-50 L90,-38 L70,-30 L76,-18 L54,-12 L58,0 L36,2 L38,12 L18,12 L18,26 L26,50 L14,46 L8,58 L0,50 L-8,58 L-14,46 L-26,50 L-18,26 L-18,12 L-38,12 L-36,2 L-58,0 L-54,-12 L-76,-18 L-70,-30 L-90,-38 L-84,-50 L-100,-64 C-74,-70 -36,-52 0,-22 Z M0,-58 C11,-58 19,-48 19,-36 C19,-26 15,-18 8,-14 L0,-2 L-8,-14 C-15,-18 -19,-26 -19,-36 C-19,-48 -11,-58 0,-58 Z" fill="#FFFFFF" /></g></svg>
<text x="24" y="314" font-family="'Inter','Helvetica Neue',Arial,sans-serif" font-size="17" font-weight="700" fill="#2C2E33" text-anchor="start" letter-spacing="0" >A5  Flatter bend</text>
<text x="24" y="336" font-family="'Inter','Helvetica Neue',Arial,sans-serif" font-size="13" font-weight="400" fill="#6B6E75" text-anchor="start" letter-spacing="0" >28° split, closer to horizontal</text>
</g>
<g transform="translate(324,464)">
<rect x="8" y="8" width="284" height="364" rx="14" fill="#FFFFFF"/>
<svg x="22.0" y="24" width="256" height="256" viewBox="0 0 256 256"><defs>
    <linearGradient id="vA6ink" x1="0" y1="0" x2="0" y2="1"><stop offset="0" stop-color="#484B51"/><stop offset="1" stop-color="#2C2E33"/></linearGradient>
    <linearGradient id="vA6paper" x1="0" y1="0" x2="0" y2="1"><stop offset="0" stop-color="#F7F7F7"/><stop offset="1" stop-color="#E2E2E2"/></linearGradient>
    <linearGradient id="vA6rust" x1="0" y1="0" x2="0" y2="1"><stop offset="0" stop-color="#F2643F"/><stop offset="1" stop-color="#E5401C"/></linearGradient>
    <clipPath id="vA6clipA"><path d="M48,40 H208 V130 C208,180 172,214 128,228 C84,214 48,180 48,130 Z"/></clipPath>
    <clipPath id="vA6clipB"><path d="M64,36 H192 Q200,36 200,44 V128 Q200,192 128,226 Q56,192 56,128 V44 Q56,36 64,36 Z"/></clipPath>
    <clipPath id="vA6clipC"><path d="M128,28 L208,62 V142 L128,228 L48,142 V62 Z"/></clipPath>
    <filter id="vA6soft" x="-60%" y="-60%" width="220%" height="220%"><feGaussianBlur stdDeviation="3.6"/></filter>
  </defs><g clip-path="url(#vA6clipB)">
      <rect width="256" height="256" fill="#2C2E33"/>
      <path d="M-296.3,552.3 L552.3,-296.3 L1117.9,269.4 L269.4,1117.9 Z" fill="#E5401C"/>
    </g><path d="M64,36 H192 Q200,36 200,44 V128 Q200,192 128,226 Q56,192 56,128 V44 Q56,36 64,36 Z" fill="none" stroke="#FFFFFF" stroke-width="8" transform="translate(128,128) scale(0.9) translate(-128,-128)"/><g transform="translate(128,132) scale(0.6)"><path d="M0,-22 C36,-52 74,-70 100,-64 L84,-50 L90,-38 L70,-30 L76,-18 L54,-12 L58,0 L36,2 L38,12 L18,12 L18,26 L26,50 L14,46 L8,58 L0,50 L-8,58 L-14,46 L-26,50 L-18,26 L-18,12 L-38,12 L-36,2 L-58,0 L-54,-12 L-76,-18 L-70,-30 L-90,-38 L-84,-50 L-100,-64 C-74,-70 -36,-52 0,-22 Z M0,-58 C11,-58 19,-48 19,-36 C19,-26 15,-18 8,-14 L0,-2 L-8,-14 C-15,-18 -19,-26 -19,-36 C-19,-48 -11,-58 0,-58 Z" fill="#FFFFFF" /></g></svg>
<text x="24" y="314" font-family="'Inter','Helvetica Neue',Arial,sans-serif" font-size="17" font-weight="700" fill="#2C2E33" text-anchor="start" letter-spacing="0" >A6  Inner rim</text>
<text x="24" y="336" font-family="'Inter','Helvetica Neue',Arial,sans-serif" font-size="13" font-weight="400" fill="#6B6E75" text-anchor="start" letter-spacing="0" >White inset rim, TAK-style double edge</text>
</g>
<g transform="translate(624,464)">
<rect x="8" y="8" width="284" height="364" rx="14" fill="#FFFFFF"/>
<svg x="22.0" y="24" width="256" height="256" viewBox="0 0 256 256"><defs>
    <linearGradient id="vA7ink" x1="0" y1="0" x2="0" y2="1"><stop offset="0" stop-color="#484B51"/><stop offset="1" stop-color="#2C2E33"/></linearGradient>
    <linearGradient id="vA7paper" x1="0" y1="0" x2="0" y2="1"><stop offset="0" stop-color="#F7F7F7"/><stop offset="1" stop-color="#E2E2E2"/></linearGradient>
    <linearGradient id="vA7rust" x1="0" y1="0" x2="0" y2="1"><stop offset="0" stop-color="#F2643F"/><stop offset="1" stop-color="#E5401C"/></linearGradient>
    <clipPath id="vA7clipA"><path d="M48,40 H208 V130 C208,180 172,214 128,228 C84,214 48,180 48,130 Z"/></clipPath>
    <clipPath id="vA7clipB"><path d="M64,36 H192 Q200,36 200,44 V128 Q200,192 128,226 Q56,192 56,128 V44 Q56,36 64,36 Z"/></clipPath>
    <clipPath id="vA7clipC"><path d="M128,28 L208,62 V142 L128,228 L48,142 V62 Z"/></clipPath>
    <filter id="vA7soft" x="-60%" y="-60%" width="220%" height="220%"><feGaussianBlur stdDeviation="3.6"/></filter>
  </defs><g clip-path="url(#vA7clipB)">
      <rect width="256" height="256" fill="#484B51"/>
      <path d="M-296.3,552.3 L552.3,-296.3 L1117.9,269.4 L269.4,1117.9 Z" fill="#E5401C"/>
    </g><path d="M64,36 H192 Q200,36 200,44 V128 Q200,192 128,226 Q56,192 56,128 V44 Q56,36 64,36 Z" fill="none" stroke="#2C2E33" stroke-width="14" stroke-linejoin="round"/><g transform="translate(128,132) scale(0.62)"><path d="M0,-22 C36,-52 74,-70 100,-64 L84,-50 L90,-38 L70,-30 L76,-18 L54,-12 L58,0 L36,2 L38,12 L18,12 L18,26 L26,50 L14,46 L8,58 L0,50 L-8,58 L-14,46 L-26,50 L-18,26 L-18,12 L-38,12 L-36,2 L-58,0 L-54,-12 L-76,-18 L-70,-30 L-90,-38 L-84,-50 L-100,-64 C-74,-70 -36,-52 0,-22 Z M0,-58 C11,-58 19,-48 19,-36 C19,-26 15,-18 8,-14 L0,-2 L-8,-14 C-15,-18 -19,-26 -19,-36 C-19,-48 -11,-58 0,-58 Z" fill="#FFFFFF" /></g></svg>
<text x="24" y="314" font-family="'Inter','Helvetica Neue',Arial,sans-serif" font-size="17" font-weight="700" fill="#2C2E33" text-anchor="start" letter-spacing="0" >A7  Ink frame</text>
<text x="24" y="336" font-family="'Inter','Helvetica Neue',Arial,sans-serif" font-size="13" font-weight="400" fill="#6B6E75" text-anchor="start" letter-spacing="0" >Heavy ink frame like mail-backup</text>
</g>
<g transform="translate(924,464)">
<rect x="8" y="8" width="284" height="364" rx="14" fill="#FFFFFF"/>
<svg x="22.0" y="24" width="256" height="256" viewBox="0 0 256 256"><defs>
    <linearGradient id="vA8ink" x1="0" y1="0" x2="0" y2="1"><stop offset="0" stop-color="#484B51"/><stop offset="1" stop-color="#2C2E33"/></linearGradient>
    <linearGradient id="vA8paper" x1="0" y1="0" x2="0" y2="1"><stop offset="0" stop-color="#F7F7F7"/><stop offset="1" stop-color="#E2E2E2"/></linearGradient>
    <linearGradient id="vA8rust" x1="0" y1="0" x2="0" y2="1"><stop offset="0" stop-color="#F2643F"/><stop offset="1" stop-color="#E5401C"/></linearGradient>
    <clipPath id="vA8clipA"><path d="M48,40 H208 V130 C208,180 172,214 128,228 C84,214 48,180 48,130 Z"/></clipPath>
    <clipPath id="vA8clipB"><path d="M64,36 H192 Q200,36 200,44 V128 Q200,192 128,226 Q56,192 56,128 V44 Q56,36 64,36 Z"/></clipPath>
    <clipPath id="vA8clipC"><path d="M128,28 L208,62 V142 L128,228 L48,142 V62 Z"/></clipPath>
    <filter id="vA8soft" x="-60%" y="-60%" width="220%" height="220%"><feGaussianBlur stdDeviation="3.6"/></filter>
  </defs><g clip-path="url(#vA8clipB)">
      <rect width="256" height="256" fill="#E2E2E2"/>
      <path d="M-296.3,552.3 L552.3,-296.3 L1117.9,269.4 L269.4,1117.9 Z" fill="#E5401C"/>
    </g><path d="M64,36 H192 Q200,36 200,44 V128 Q200,192 128,226 Q56,192 56,128 V44 Q56,36 64,36 Z" fill="none" stroke="#2C2E33" stroke-width="12" stroke-linejoin="round"/><g transform="translate(128,132) scale(0.62)"><path d="M0,-22 C36,-52 74,-70 100,-64 L84,-50 L90,-38 L70,-30 L76,-18 L54,-12 L58,0 L36,2 L38,12 L18,12 L18,26 L26,50 L14,46 L8,58 L0,50 L-8,58 L-14,46 L-26,50 L-18,26 L-18,12 L-38,12 L-36,2 L-58,0 L-54,-12 L-76,-18 L-70,-30 L-90,-38 L-84,-50 L-100,-64 C-74,-70 -36,-52 0,-22 Z M0,-58 C11,-58 19,-48 19,-36 C19,-26 15,-18 8,-14 L0,-2 L-8,-14 C-15,-18 -19,-26 -19,-36 C-19,-48 -11,-58 0,-58 Z" fill="#2C2E33" /></g></svg>
<text x="24" y="314" font-family="'Inter','Helvetica Neue',Arial,sans-serif" font-size="17" font-weight="700" fill="#2C2E33" text-anchor="start" letter-spacing="0" >A8  Paper + rust</text>
<text x="24" y="336" font-family="'Inter','Helvetica Neue',Arial,sans-serif" font-size="13" font-weight="400" fill="#6B6E75" text-anchor="start" letter-spacing="0" >Light body, ink eagle and frame</text>
</g>
<g transform="translate(24,844)">
<rect x="8" y="8" width="284" height="364" rx="14" fill="#FFFFFF"/>
<svg x="22.0" y="24" width="256" height="256" viewBox="0 0 256 256"><defs>
    <linearGradient id="vA9ink" x1="0" y1="0" x2="0" y2="1"><stop offset="0" stop-color="#484B51"/><stop offset="1" stop-color="#2C2E33"/></linearGradient>
    <linearGradient id="vA9paper" x1="0" y1="0" x2="0" y2="1"><stop offset="0" stop-color="#F7F7F7"/><stop offset="1" stop-color="#E2E2E2"/></linearGradient>
    <linearGradient id="vA9rust" x1="0" y1="0" x2="0" y2="1"><stop offset="0" stop-color="#F2643F"/><stop offset="1" stop-color="#E5401C"/></linearGradient>
    <clipPath id="vA9clipA"><path d="M48,40 H208 V130 C208,180 172,214 128,228 C84,214 48,180 48,130 Z"/></clipPath>
    <clipPath id="vA9clipB"><path d="M64,36 H192 Q200,36 200,44 V128 Q200,192 128,226 Q56,192 56,128 V44 Q56,36 64,36 Z"/></clipPath>
    <clipPath id="vA9clipC"><path d="M128,28 L208,62 V142 L128,228 L48,142 V62 Z"/></clipPath>
    <filter id="vA9soft" x="-60%" y="-60%" width="220%" height="220%"><feGaussianBlur stdDeviation="3.6"/></filter>
  </defs><g clip-path="url(#vA9clipB)">
      <rect width="256" height="256" fill="#2C2E33"/>
      <path d="M-296.3,552.3 L552.3,-296.3 L1117.9,269.4 L269.4,1117.9 Z" fill="#E5401C"/>
    </g><clipPath id="vA9dn"><path d="M-296.3,552.3 L552.3,-296.3 L1117.9,269.4 L269.4,1117.9 Z"/></clipPath><g transform="translate(128,132) scale(0.66)"><path d="M0,-22 C36,-52 74,-70 100,-64 L84,-50 L90,-38 L70,-30 L76,-18 L54,-12 L58,0 L36,2 L38,12 L18,12 L18,26 L26,50 L14,46 L8,58 L0,50 L-8,58 L-14,46 L-26,50 L-18,26 L-18,12 L-38,12 L-36,2 L-58,0 L-54,-12 L-76,-18 L-70,-30 L-90,-38 L-84,-50 L-100,-64 C-74,-70 -36,-52 0,-22 Z M0,-58 C11,-58 19,-48 19,-36 C19,-26 15,-18 8,-14 L0,-2 L-8,-14 C-15,-18 -19,-26 -19,-36 C-19,-48 -11,-58 0,-58 Z" fill="#E5401C" /></g><g clip-path="url(#vA9dn)"><g transform="translate(128,132) scale(0.66)"><path d="M0,-22 C36,-52 74,-70 100,-64 L84,-50 L90,-38 L70,-30 L76,-18 L54,-12 L58,0 L36,2 L38,12 L18,12 L18,26 L26,50 L14,46 L8,58 L0,50 L-8,58 L-14,46 L-26,50 L-18,26 L-18,12 L-38,12 L-36,2 L-58,0 L-54,-12 L-76,-18 L-70,-30 L-90,-38 L-84,-50 L-100,-64 C-74,-70 -36,-52 0,-22 Z M0,-58 C11,-58 19,-48 19,-36 C19,-26 15,-18 8,-14 L0,-2 L-8,-14 C-15,-18 -19,-26 -19,-36 C-19,-48 -11,-58 0,-58 Z" fill="#2C2E33" /></g></g></svg>
<text x="24" y="314" font-family="'Inter','Helvetica Neue',Arial,sans-serif" font-size="17" font-weight="700" fill="#2C2E33" text-anchor="start" letter-spacing="0" >A9  Counterchanged</text>
<text x="24" y="336" font-family="'Inter','Helvetica Neue',Arial,sans-serif" font-size="13" font-weight="400" fill="#6B6E75" text-anchor="start" letter-spacing="0" >Eagle swaps colour across the bend</text>
</g>
<g transform="translate(324,844)">
<rect x="8" y="8" width="284" height="364" rx="14" fill="#FFFFFF"/>
<svg x="22.0" y="24" width="256" height="256" viewBox="0 0 256 256"><defs>
    <linearGradient id="vA10ink" x1="0" y1="0" x2="0" y2="1"><stop offset="0" stop-color="#484B51"/><stop offset="1" stop-color="#2C2E33"/></linearGradient>
    <linearGradient id="vA10paper" x1="0" y1="0" x2="0" y2="1"><stop offset="0" stop-color="#F7F7F7"/><stop offset="1" stop-color="#E2E2E2"/></linearGradient>
    <linearGradient id="vA10rust" x1="0" y1="0" x2="0" y2="1"><stop offset="0" stop-color="#F2643F"/><stop offset="1" stop-color="#E5401C"/></linearGradient>
    <clipPath id="vA10clipA"><path d="M48,40 H208 V130 C208,180 172,214 128,228 C84,214 48,180 48,130 Z"/></clipPath>
    <clipPath id="vA10clipB"><path d="M64,36 H192 Q200,36 200,44 V128 Q200,192 128,226 Q56,192 56,128 V44 Q56,36 64,36 Z"/></clipPath>
    <clipPath id="vA10clipC"><path d="M128,28 L208,62 V142 L128,228 L48,142 V62 Z"/></clipPath>
    <filter id="vA10soft" x="-60%" y="-60%" width="220%" height="220%"><feGaussianBlur stdDeviation="3.6"/></filter>
  </defs><g clip-path="url(#vA10clipB)"><rect width="256" height="256" fill="#2C2E33"/><path d="M-40,296 L296,-40 L340,4 L4,340 Z" fill="#E5401C"/></g><g transform="translate(128,132) scale(0.66)"><path d="M0,-22 C36,-52 74,-70 100,-64 L84,-50 L90,-38 L70,-30 L76,-18 L54,-12 L58,0 L36,2 L38,12 L18,12 L18,26 L26,50 L14,46 L8,58 L0,50 L-8,58 L-14,46 L-26,50 L-18,26 L-18,12 L-38,12 L-36,2 L-58,0 L-54,-12 L-76,-18 L-70,-30 L-90,-38 L-84,-50 L-100,-64 C-74,-70 -36,-52 0,-22 Z M0,-58 C11,-58 19,-48 19,-36 C19,-26 15,-18 8,-14 L0,-2 L-8,-14 C-15,-18 -19,-26 -19,-36 C-19,-48 -11,-58 0,-58 Z" fill="#FFFFFF" /></g></svg>
<text x="24" y="314" font-family="'Inter','Helvetica Neue',Arial,sans-serif" font-size="17" font-weight="700" fill="#2C2E33" text-anchor="start" letter-spacing="0" >A10  Bend band</text>
<text x="24" y="336" font-family="'Inter','Helvetica Neue',Arial,sans-serif" font-size="13" font-weight="400" fill="#6B6E75" text-anchor="start" letter-spacing="0" >Rust band on ink instead of halves</text>
</g>
<g transform="translate(624,844)">
<rect x="8" y="8" width="284" height="364" rx="14" fill="#FFFFFF"/>
<svg x="22.0" y="24" width="256" height="256" viewBox="0 0 256 256"><defs>
    <linearGradient id="vA11ink" x1="0" y1="0" x2="0" y2="1"><stop offset="0" stop-color="#484B51"/><stop offset="1" stop-color="#2C2E33"/></linearGradient>
    <linearGradient id="vA11paper" x1="0" y1="0" x2="0" y2="1"><stop offset="0" stop-color="#F7F7F7"/><stop offset="1" stop-color="#E2E2E2"/></linearGradient>
    <linearGradient id="vA11rust" x1="0" y1="0" x2="0" y2="1"><stop offset="0" stop-color="#F2643F"/><stop offset="1" stop-color="#E5401C"/></linearGradient>
    <clipPath id="vA11clipA"><path d="M48,40 H208 V130 C208,180 172,214 128,228 C84,214 48,180 48,130 Z"/></clipPath>
    <clipPath id="vA11clipB"><path d="M64,36 H192 Q200,36 200,44 V128 Q200,192 128,226 Q56,192 56,128 V44 Q56,36 64,36 Z"/></clipPath>
    <clipPath id="vA11clipC"><path d="M128,28 L208,62 V142 L128,228 L48,142 V62 Z"/></clipPath>
    <filter id="vA11soft" x="-60%" y="-60%" width="220%" height="220%"><feGaussianBlur stdDeviation="3.6"/></filter>
  </defs><g clip-path="url(#vA11clipB)">
      <rect width="256" height="256" fill="url(#vA11ink)"/>
      <path d="M-296.3,552.3 L552.3,-296.3 L1117.9,269.4 L269.4,1117.9 Z" fill="url(#vA11rust)"/>
    </g><g filter="url(#vA11soft)" opacity="0.35"><g transform="translate(128,138) scale(0.66)"><path d="M0,-22 C36,-52 74,-70 100,-64 L84,-50 L90,-38 L70,-30 L76,-18 L54,-12 L58,0 L36,2 L38,12 L18,12 L18,26 L26,50 L14,46 L8,58 L0,50 L-8,58 L-14,46 L-26,50 L-18,26 L-18,12 L-38,12 L-36,2 L-58,0 L-54,-12 L-76,-18 L-70,-30 L-90,-38 L-84,-50 L-100,-64 C-74,-70 -36,-52 0,-22 Z M0,-58 C11,-58 19,-48 19,-36 C19,-26 15,-18 8,-14 L0,-2 L-8,-14 C-15,-18 -19,-26 -19,-36 C-19,-48 -11,-58 0,-58 Z" fill="#000" /></g></g><g transform="translate(128,132) scale(0.66)"><path d="M0,-22 C36,-52 74,-70 100,-64 L84,-50 L90,-38 L70,-30 L76,-18 L54,-12 L58,0 L36,2 L38,12 L18,12 L18,26 L26,50 L14,46 L8,58 L0,50 L-8,58 L-14,46 L-26,50 L-18,26 L-18,12 L-38,12 L-36,2 L-58,0 L-54,-12 L-76,-18 L-70,-30 L-90,-38 L-84,-50 L-100,-64 C-74,-70 -36,-52 0,-22 Z M0,-58 C11,-58 19,-48 19,-36 C19,-26 15,-18 8,-14 L0,-2 L-8,-14 C-15,-18 -19,-26 -19,-36 C-19,-48 -11,-58 0,-58 Z" fill="#FFFFFF" /></g></svg>
<text x="24" y="314" font-family="'Inter','Helvetica Neue',Arial,sans-serif" font-size="17" font-weight="700" fill="#2C2E33" text-anchor="start" letter-spacing="0" >A11  Gradient finish</text>
<text x="24" y="336" font-family="'Inter','Helvetica Neue',Arial,sans-serif" font-size="13" font-weight="400" fill="#6B6E75" text-anchor="start" letter-spacing="0" >Subtle gradients + soft shadow</text>
</g>
<g transform="translate(924,844)">
<rect x="8" y="8" width="284" height="364" rx="14" fill="#FFFFFF"/>
<svg x="22.0" y="24" width="256" height="256" viewBox="0 0 256 256"><defs>
    <linearGradient id="vA12ink" x1="0" y1="0" x2="0" y2="1"><stop offset="0" stop-color="#484B51"/><stop offset="1" stop-color="#2C2E33"/></linearGradient>
    <linearGradient id="vA12paper" x1="0" y1="0" x2="0" y2="1"><stop offset="0" stop-color="#F7F7F7"/><stop offset="1" stop-color="#E2E2E2"/></linearGradient>
    <linearGradient id="vA12rust" x1="0" y1="0" x2="0" y2="1"><stop offset="0" stop-color="#F2643F"/><stop offset="1" stop-color="#E5401C"/></linearGradient>
    <clipPath id="vA12clipA"><path d="M48,40 H208 V130 C208,180 172,214 128,228 C84,214 48,180 48,130 Z"/></clipPath>
    <clipPath id="vA12clipB"><path d="M64,36 H192 Q200,36 200,44 V128 Q200,192 128,226 Q56,192 56,128 V44 Q56,36 64,36 Z"/></clipPath>
    <clipPath id="vA12clipC"><path d="M128,28 L208,62 V142 L128,228 L48,142 V62 Z"/></clipPath>
    <filter id="vA12soft" x="-60%" y="-60%" width="220%" height="220%"><feGaussianBlur stdDeviation="3.6"/></filter>
  </defs><g clip-path="url(#vA12clipB)">
      <rect width="256" height="256" fill="#2C2E33"/>
      <path d="M-296.3,552.3 L552.3,-296.3 L1117.9,269.4 L269.4,1117.9 Z" fill="#E5401C"/>
    </g><g clip-path="url(#vA12clipB)"><g transform="translate(128,128) scale(0.92)"><path d="M0,-22 C36,-52 74,-70 100,-64 L84,-50 L90,-38 L70,-30 L76,-18 L54,-12 L58,0 L36,2 L38,12 L18,12 L18,26 L26,50 L14,46 L8,58 L0,50 L-8,58 L-14,46 L-26,50 L-18,26 L-18,12 L-38,12 L-36,2 L-58,0 L-54,-12 L-76,-18 L-70,-30 L-90,-38 L-84,-50 L-100,-64 C-74,-70 -36,-52 0,-22 Z M0,-58 C11,-58 19,-48 19,-36 C19,-26 15,-18 8,-14 L0,-2 L-8,-14 C-15,-18 -19,-26 -19,-36 C-19,-48 -11,-58 0,-58 Z" fill="#FFFFFF" /></g></g></svg>
<text x="24" y="314" font-family="'Inter','Helvetica Neue',Arial,sans-serif" font-size="17" font-weight="700" fill="#2C2E33" text-anchor="start" letter-spacing="0" >A12  Oversized eagle</text>
<text x="24" y="336" font-family="'Inter','Helvetica Neue',Arial,sans-serif" font-size="13" font-weight="400" fill="#6B6E75" text-anchor="start" letter-spacing="0" >Wings cropped by the shield edge</text>
</g>
<g transform="translate(24,1224)">
<rect x="8" y="8" width="1184" height="316" rx="14" fill="#FFFFFF"/>
<text x="24" y="40" font-family="'Inter','Helvetica Neue',Arial,sans-serif" font-size="17" font-weight="700" fill="#2C2E33" text-anchor="start" letter-spacing="0" >Lockups and size check (baseline mark)</text>
<g transform="translate(24,60)"><svg x="0" y="10" width="130" height="130" viewBox="0 0 256 256"><defs>
    <linearGradient id="l1ink" x1="0" y1="0" x2="0" y2="1"><stop offset="0" stop-color="#484B51"/><stop offset="1" stop-color="#2C2E33"/></linearGradient>
    <linearGradient id="l1paper" x1="0" y1="0" x2="0" y2="1"><stop offset="0" stop-color="#F7F7F7"/><stop offset="1" stop-color="#E2E2E2"/></linearGradient>
    <linearGradient id="l1rust" x1="0" y1="0" x2="0" y2="1"><stop offset="0" stop-color="#F2643F"/><stop offset="1" stop-color="#E5401C"/></linearGradient>
    <clipPath id="l1clipA"><path d="M48,40 H208 V130 C208,180 172,214 128,228 C84,214 48,180 48,130 Z"/></clipPath>
    <clipPath id="l1clipB"><path d="M64,36 H192 Q200,36 200,44 V128 Q200,192 128,226 Q56,192 56,128 V44 Q56,36 64,36 Z"/></clipPath>
    <clipPath id="l1clipC"><path d="M128,28 L208,62 V142 L128,228 L48,142 V62 Z"/></clipPath>
    <filter id="l1soft" x="-60%" y="-60%" width="220%" height="220%"><feGaussianBlur stdDeviation="3.6"/></filter>
  </defs><g clip-path="url(#l1clipB)">
      <rect width="256" height="256" fill="#2C2E33"/>
      <path d="M-296.3,552.3 L552.3,-296.3 L1117.9,269.4 L269.4,1117.9 Z" fill="#E5401C"/>
    </g><g transform="translate(128,132) scale(0.66)"><path d="M0,-22 C36,-52 74,-70 100,-64 L84,-50 L90,-38 L70,-30 L76,-18 L54,-12 L58,0 L36,2 L38,12 L18,12 L18,26 L26,50 L14,46 L8,58 L0,50 L-8,58 L-14,46 L-26,50 L-18,26 L-18,12 L-38,12 L-36,2 L-58,0 L-54,-12 L-76,-18 L-70,-30 L-90,-38 L-84,-50 L-100,-64 C-74,-70 -36,-52 0,-22 Z M0,-58 C11,-58 19,-48 19,-36 C19,-26 15,-18 8,-14 L0,-2 L-8,-14 C-15,-18 -19,-26 -19,-36 C-19,-48 -11,-58 0,-58 Z" fill="#FFFFFF" /></g></svg><text x="146" y="92" font-family="'SF Mono','JetBrains Mono',Menlo,Consolas,monospace" font-size="48" font-weight="700"><tspan fill="#2C2E33">rus</tspan><tspan fill="#E5401C">tak</tspan></text></g>
<g transform="translate(24,180)"><svg x="0" y="10" width="130" height="130" viewBox="0 0 256 256"><defs>
    <linearGradient id="l2ink" x1="0" y1="0" x2="0" y2="1"><stop offset="0" stop-color="#484B51"/><stop offset="1" stop-color="#2C2E33"/></linearGradient>
    <linearGradient id="l2paper" x1="0" y1="0" x2="0" y2="1"><stop offset="0" stop-color="#F7F7F7"/><stop offset="1" stop-color="#E2E2E2"/></linearGradient>
    <linearGradient id="l2rust" x1="0" y1="0" x2="0" y2="1"><stop offset="0" stop-color="#F2643F"/><stop offset="1" stop-color="#E5401C"/></linearGradient>
    <clipPath id="l2clipA"><path d="M48,40 H208 V130 C208,180 172,214 128,228 C84,214 48,180 48,130 Z"/></clipPath>
    <clipPath id="l2clipB"><path d="M64,36 H192 Q200,36 200,44 V128 Q200,192 128,226 Q56,192 56,128 V44 Q56,36 64,36 Z"/></clipPath>
    <clipPath id="l2clipC"><path d="M128,28 L208,62 V142 L128,228 L48,142 V62 Z"/></clipPath>
    <filter id="l2soft" x="-60%" y="-60%" width="220%" height="220%"><feGaussianBlur stdDeviation="3.6"/></filter>
  </defs><g clip-path="url(#l2clipB)">
      <rect width="256" height="256" fill="#2C2E33"/>
      <path d="M-296.3,552.3 L552.3,-296.3 L1117.9,269.4 L269.4,1117.9 Z" fill="#E5401C"/>
    </g><g transform="translate(128,132) scale(0.66)"><path d="M0,-22 C36,-52 74,-70 100,-64 L84,-50 L90,-38 L70,-30 L76,-18 L54,-12 L58,0 L36,2 L38,12 L18,12 L18,26 L26,50 L14,46 L8,58 L0,50 L-8,58 L-14,46 L-26,50 L-18,26 L-18,12 L-38,12 L-36,2 L-58,0 L-54,-12 L-76,-18 L-70,-30 L-90,-38 L-84,-50 L-100,-64 C-74,-70 -36,-52 0,-22 Z M0,-58 C11,-58 19,-48 19,-36 C19,-26 15,-18 8,-14 L0,-2 L-8,-14 C-15,-18 -19,-26 -19,-36 C-19,-48 -11,-58 0,-58 Z" fill="#FFFFFF" /></g></svg><text x="146" y="92" font-family="'Inter','Helvetica Neue',Arial,sans-serif" font-size="48" font-weight="700"><tspan fill="#2C2E33">rus</tspan><tspan fill="#E5401C">tak</tspan></text></g>
<g transform="translate(420,60)"><svg x="0" y="0" width="256" height="200" viewBox="0 0 256 256"><defs>
    <linearGradient id="l3ink" x1="0" y1="0" x2="0" y2="1"><stop offset="0" stop-color="#484B51"/><stop offset="1" stop-color="#2C2E33"/></linearGradient>
    <linearGradient id="l3paper" x1="0" y1="0" x2="0" y2="1"><stop offset="0" stop-color="#F7F7F7"/><stop offset="1" stop-color="#E2E2E2"/></linearGradient>
    <linearGradient id="l3rust" x1="0" y1="0" x2="0" y2="1"><stop offset="0" stop-color="#F2643F"/><stop offset="1" stop-color="#E5401C"/></linearGradient>
    <clipPath id="l3clipA"><path d="M48,40 H208 V130 C208,180 172,214 128,228 C84,214 48,180 48,130 Z"/></clipPath>
    <clipPath id="l3clipB"><path d="M64,36 H192 Q200,36 200,44 V128 Q200,192 128,226 Q56,192 56,128 V44 Q56,36 64,36 Z"/></clipPath>
    <clipPath id="l3clipC"><path d="M128,28 L208,62 V142 L128,228 L48,142 V62 Z"/></clipPath>
    <filter id="l3soft" x="-60%" y="-60%" width="220%" height="220%"><feGaussianBlur stdDeviation="3.6"/></filter>
  </defs><g clip-path="url(#l3clipB)">
      <rect width="256" height="256" fill="#2C2E33"/>
      <path d="M-296.3,552.3 L552.3,-296.3 L1117.9,269.4 L269.4,1117.9 Z" fill="#E5401C"/>
    </g><g transform="translate(128,132) scale(0.66)"><path d="M0,-22 C36,-52 74,-70 100,-64 L84,-50 L90,-38 L70,-30 L76,-18 L54,-12 L58,0 L36,2 L38,12 L18,12 L18,26 L26,50 L14,46 L8,58 L0,50 L-8,58 L-14,46 L-26,50 L-18,26 L-18,12 L-38,12 L-36,2 L-58,0 L-54,-12 L-76,-18 L-70,-30 L-90,-38 L-84,-50 L-100,-64 C-74,-70 -36,-52 0,-22 Z M0,-58 C11,-58 19,-48 19,-36 C19,-26 15,-18 8,-14 L0,-2 L-8,-14 C-15,-18 -19,-26 -19,-36 C-19,-48 -11,-58 0,-58 Z" fill="#FFFFFF" /></g></svg><text x="128" y="250" font-family="'SF Mono','JetBrains Mono',Menlo,Consolas,monospace" font-size="44" font-weight="700" text-anchor="middle"><tspan fill="#2C2E33">rus</tspan><tspan fill="#E5401C">tak</tspan></text></g>
<rect x="700" y="60" width="440" height="120" rx="12" fill="#2C2E33"/>
<g transform="translate(720,60)"><svg x="0" y="10" width="100" height="100" viewBox="0 0 256 256"><defs>
    <linearGradient id="l4ink" x1="0" y1="0" x2="0" y2="1"><stop offset="0" stop-color="#484B51"/><stop offset="1" stop-color="#2C2E33"/></linearGradient>
    <linearGradient id="l4paper" x1="0" y1="0" x2="0" y2="1"><stop offset="0" stop-color="#F7F7F7"/><stop offset="1" stop-color="#E2E2E2"/></linearGradient>
    <linearGradient id="l4rust" x1="0" y1="0" x2="0" y2="1"><stop offset="0" stop-color="#F2643F"/><stop offset="1" stop-color="#E5401C"/></linearGradient>
    <clipPath id="l4clipA"><path d="M48,40 H208 V130 C208,180 172,214 128,228 C84,214 48,180 48,130 Z"/></clipPath>
    <clipPath id="l4clipB"><path d="M64,36 H192 Q200,36 200,44 V128 Q200,192 128,226 Q56,192 56,128 V44 Q56,36 64,36 Z"/></clipPath>
    <clipPath id="l4clipC"><path d="M128,28 L208,62 V142 L128,228 L48,142 V62 Z"/></clipPath>
    <filter id="l4soft" x="-60%" y="-60%" width="220%" height="220%"><feGaussianBlur stdDeviation="3.6"/></filter>
  </defs><g clip-path="url(#l4clipB)">
      <rect width="256" height="256" fill="#2C2E33"/>
      <path d="M-296.3,552.3 L552.3,-296.3 L1117.9,269.4 L269.4,1117.9 Z" fill="#E5401C"/>
    </g><g transform="translate(128,132) scale(0.66)"><path d="M0,-22 C36,-52 74,-70 100,-64 L84,-50 L90,-38 L70,-30 L76,-18 L54,-12 L58,0 L36,2 L38,12 L18,12 L18,26 L26,50 L14,46 L8,58 L0,50 L-8,58 L-14,46 L-26,50 L-18,26 L-18,12 L-38,12 L-36,2 L-58,0 L-54,-12 L-76,-18 L-70,-30 L-90,-38 L-84,-50 L-100,-64 C-74,-70 -36,-52 0,-22 Z M0,-58 C11,-58 19,-48 19,-36 C19,-26 15,-18 8,-14 L0,-2 L-8,-14 C-15,-18 -19,-26 -19,-36 C-19,-48 -11,-58 0,-58 Z" fill="#FFFFFF" /></g></svg><text x="116" y="76" font-family="'SF Mono','JetBrains Mono',Menlo,Consolas,monospace" font-size="44" font-weight="700"><tspan fill="#FFFFFF">rus</tspan><tspan fill="#F2643F">tak</tspan></text></g>
<svg x="720" y="200" width="128" height="128" viewBox="0 0 256 256"><defs>
    <linearGradient id="s128ink" x1="0" y1="0" x2="0" y2="1"><stop offset="0" stop-color="#484B51"/><stop offset="1" stop-color="#2C2E33"/></linearGradient>
    <linearGradient id="s128paper" x1="0" y1="0" x2="0" y2="1"><stop offset="0" stop-color="#F7F7F7"/><stop offset="1" stop-color="#E2E2E2"/></linearGradient>
    <linearGradient id="s128rust" x1="0" y1="0" x2="0" y2="1"><stop offset="0" stop-color="#F2643F"/><stop offset="1" stop-color="#E5401C"/></linearGradient>
    <clipPath id="s128clipA"><path d="M48,40 H208 V130 C208,180 172,214 128,228 C84,214 48,180 48,130 Z"/></clipPath>
    <clipPath id="s128clipB"><path d="M64,36 H192 Q200,36 200,44 V128 Q200,192 128,226 Q56,192 56,128 V44 Q56,36 64,36 Z"/></clipPath>
    <clipPath id="s128clipC"><path d="M128,28 L208,62 V142 L128,228 L48,142 V62 Z"/></clipPath>
    <filter id="s128soft" x="-60%" y="-60%" width="220%" height="220%"><feGaussianBlur stdDeviation="3.6"/></filter>
  </defs><g clip-path="url(#s128clipB)">
      <rect width="256" height="256" fill="#2C2E33"/>
      <path d="M-296.3,552.3 L552.3,-296.3 L1117.9,269.4 L269.4,1117.9 Z" fill="#E5401C"/>
    </g><g transform="translate(128,132) scale(0.66)"><path d="M0,-22 C36,-52 74,-70 100,-64 L84,-50 L90,-38 L70,-30 L76,-18 L54,-12 L58,0 L36,2 L38,12 L18,12 L18,26 L26,50 L14,46 L8,58 L0,50 L-8,58 L-14,46 L-26,50 L-18,26 L-18,12 L-38,12 L-36,2 L-58,0 L-54,-12 L-76,-18 L-70,-30 L-90,-38 L-84,-50 L-100,-64 C-74,-70 -36,-52 0,-22 Z M0,-58 C11,-58 19,-48 19,-36 C19,-26 15,-18 8,-14 L0,-2 L-8,-14 C-15,-18 -19,-26 -19,-36 C-19,-48 -11,-58 0,-58 Z" fill="#FFFFFF" /></g></svg>
<text x="784.0" y="344" font-family="'Inter','Helvetica Neue',Arial,sans-serif" font-size="11" font-weight="400" fill="#6B6E75" text-anchor="middle" letter-spacing="0" >128px</text>
<svg x="872" y="264" width="64" height="64" viewBox="0 0 256 256"><defs>
    <linearGradient id="s64ink" x1="0" y1="0" x2="0" y2="1"><stop offset="0" stop-color="#484B51"/><stop offset="1" stop-color="#2C2E33"/></linearGradient>
    <linearGradient id="s64paper" x1="0" y1="0" x2="0" y2="1"><stop offset="0" stop-color="#F7F7F7"/><stop offset="1" stop-color="#E2E2E2"/></linearGradient>
    <linearGradient id="s64rust" x1="0" y1="0" x2="0" y2="1"><stop offset="0" stop-color="#F2643F"/><stop offset="1" stop-color="#E5401C"/></linearGradient>
    <clipPath id="s64clipA"><path d="M48,40 H208 V130 C208,180 172,214 128,228 C84,214 48,180 48,130 Z"/></clipPath>
    <clipPath id="s64clipB"><path d="M64,36 H192 Q200,36 200,44 V128 Q200,192 128,226 Q56,192 56,128 V44 Q56,36 64,36 Z"/></clipPath>
    <clipPath id="s64clipC"><path d="M128,28 L208,62 V142 L128,228 L48,142 V62 Z"/></clipPath>
    <filter id="s64soft" x="-60%" y="-60%" width="220%" height="220%"><feGaussianBlur stdDeviation="3.6"/></filter>
  </defs><g clip-path="url(#s64clipB)">
      <rect width="256" height="256" fill="#2C2E33"/>
      <path d="M-296.3,552.3 L552.3,-296.3 L1117.9,269.4 L269.4,1117.9 Z" fill="#E5401C"/>
    </g><g transform="translate(128,132) scale(0.66)"><path d="M0,-22 C36,-52 74,-70 100,-64 L84,-50 L90,-38 L70,-30 L76,-18 L54,-12 L58,0 L36,2 L38,12 L18,12 L18,26 L26,50 L14,46 L8,58 L0,50 L-8,58 L-14,46 L-26,50 L-18,26 L-18,12 L-38,12 L-36,2 L-58,0 L-54,-12 L-76,-18 L-70,-30 L-90,-38 L-84,-50 L-100,-64 C-74,-70 -36,-52 0,-22 Z M0,-58 C11,-58 19,-48 19,-36 C19,-26 15,-18 8,-14 L0,-2 L-8,-14 C-15,-18 -19,-26 -19,-36 C-19,-48 -11,-58 0,-58 Z" fill="#FFFFFF" /></g></svg>
<text x="904.0" y="344" font-family="'Inter','Helvetica Neue',Arial,sans-serif" font-size="11" font-weight="400" fill="#6B6E75" text-anchor="middle" letter-spacing="0" >64px</text>
<svg x="960" y="296" width="32" height="32" viewBox="0 0 256 256"><defs>
    <linearGradient id="s32ink" x1="0" y1="0" x2="0" y2="1"><stop offset="0" stop-color="#484B51"/><stop offset="1" stop-color="#2C2E33"/></linearGradient>
    <linearGradient id="s32paper" x1="0" y1="0" x2="0" y2="1"><stop offset="0" stop-color="#F7F7F7"/><stop offset="1" stop-color="#E2E2E2"/></linearGradient>
    <linearGradient id="s32rust" x1="0" y1="0" x2="0" y2="1"><stop offset="0" stop-color="#F2643F"/><stop offset="1" stop-color="#E5401C"/></linearGradient>
    <clipPath id="s32clipA"><path d="M48,40 H208 V130 C208,180 172,214 128,228 C84,214 48,180 48,130 Z"/></clipPath>
    <clipPath id="s32clipB"><path d="M64,36 H192 Q200,36 200,44 V128 Q200,192 128,226 Q56,192 56,128 V44 Q56,36 64,36 Z"/></clipPath>
    <clipPath id="s32clipC"><path d="M128,28 L208,62 V142 L128,228 L48,142 V62 Z"/></clipPath>
    <filter id="s32soft" x="-60%" y="-60%" width="220%" height="220%"><feGaussianBlur stdDeviation="3.6"/></filter>
  </defs><g clip-path="url(#s32clipB)">
      <rect width="256" height="256" fill="#2C2E33"/>
      <path d="M-296.3,552.3 L552.3,-296.3 L1117.9,269.4 L269.4,1117.9 Z" fill="#E5401C"/>
    </g><g transform="translate(128,132) scale(0.66)"><path d="M0,-22 C36,-52 74,-70 100,-64 L84,-50 L90,-38 L70,-30 L76,-18 L54,-12 L58,0 L36,2 L38,12 L18,12 L18,26 L26,50 L14,46 L8,58 L0,50 L-8,58 L-14,46 L-26,50 L-18,26 L-18,12 L-38,12 L-36,2 L-58,0 L-54,-12 L-76,-18 L-70,-30 L-90,-38 L-84,-50 L-100,-64 C-74,-70 -36,-52 0,-22 Z M0,-58 C11,-58 19,-48 19,-36 C19,-26 15,-18 8,-14 L0,-2 L-8,-14 C-15,-18 -19,-26 -19,-36 C-19,-48 -11,-58 0,-58 Z" fill="#FFFFFF" /></g></svg>
<text x="976.0" y="344" font-family="'Inter','Helvetica Neue',Arial,sans-serif" font-size="11" font-weight="400" fill="#6B6E75" text-anchor="middle" letter-spacing="0" >32px</text>
<svg x="1016" y="312" width="16" height="16" viewBox="0 0 256 256"><defs>
    <linearGradient id="s16ink" x1="0" y1="0" x2="0" y2="1"><stop offset="0" stop-color="#484B51"/><stop offset="1" stop-color="#2C2E33"/></linearGradient>
    <linearGradient id="s16paper" x1="0" y1="0" x2="0" y2="1"><stop offset="0" stop-color="#F7F7F7"/><stop offset="1" stop-color="#E2E2E2"/></linearGradient>
    <linearGradient id="s16rust" x1="0" y1="0" x2="0" y2="1"><stop offset="0" stop-color="#F2643F"/><stop offset="1" stop-color="#E5401C"/></linearGradient>
    <clipPath id="s16clipA"><path d="M48,40 H208 V130 C208,180 172,214 128,228 C84,214 48,180 48,130 Z"/></clipPath>
    <clipPath id="s16clipB"><path d="M64,36 H192 Q200,36 200,44 V128 Q200,192 128,226 Q56,192 56,128 V44 Q56,36 64,36 Z"/></clipPath>
    <clipPath id="s16clipC"><path d="M128,28 L208,62 V142 L128,228 L48,142 V62 Z"/></clipPath>
    <filter id="s16soft" x="-60%" y="-60%" width="220%" height="220%"><feGaussianBlur stdDeviation="3.6"/></filter>
  </defs><g clip-path="url(#s16clipB)">
      <rect width="256" height="256" fill="#2C2E33"/>
      <path d="M-296.3,552.3 L552.3,-296.3 L1117.9,269.4 L269.4,1117.9 Z" fill="#E5401C"/>
    </g><g transform="translate(128,132) scale(0.66)"><path d="M0,-22 C36,-52 74,-70 100,-64 L84,-50 L90,-38 L70,-30 L76,-18 L54,-12 L58,0 L36,2 L38,12 L18,12 L18,26 L26,50 L14,46 L8,58 L0,50 L-8,58 L-14,46 L-26,50 L-18,26 L-18,12 L-38,12 L-36,2 L-58,0 L-54,-12 L-76,-18 L-70,-30 L-90,-38 L-84,-50 L-100,-64 C-74,-70 -36,-52 0,-22 Z M0,-58 C11,-58 19,-48 19,-36 C19,-26 15,-18 8,-14 L0,-2 L-8,-14 C-15,-18 -19,-26 -19,-36 C-19,-48 -11,-58 0,-58 Z" fill="#FFFFFF" /></g></svg>
<text x="1024.0" y="344" font-family="'Inter','Helvetica Neue',Arial,sans-serif" font-size="11" font-weight="400" fill="#6B6E75" text-anchor="middle" letter-spacing="0" >16px</text>
</g>
</svg>